<mxfile host="app.diagrams.net" agent="Mozilla/5.0 (Windows NT 10.0; Win64; x64; rv:134.0) Gecko/20100101 Firefox/134.0" version="24.9.1">
  <diagram name="Page-1" id="toJGkD1QT9-ZioVMdBqf">
    <mxGraphModel grid="1" page="1" gridSize="10" guides="1" tooltips="1" connect="1" arrows="1" fold="1" pageScale="1" pageWidth="850" pageHeight="1100" math="0" shadow="0">
      <root>
        <mxCell id="0" />
        <mxCell id="1" parent="0" />
        <mxCell id="nzP5aHGXRV3zcvqLns4Z-17" value="" style="edgeStyle=orthogonalEdgeStyle;rounded=0;orthogonalLoop=1;jettySize=auto;html=1;" edge="1" parent="1" source="nzP5aHGXRV3zcvqLns4Z-4" target="nzP5aHGXRV3zcvqLns4Z-1">
          <mxGeometry relative="1" as="geometry" />
        </mxCell>
        <mxCell id="nzP5aHGXRV3zcvqLns4Z-4" value="IMU" style="rounded=1;whiteSpace=wrap;html=1;labelPosition=center;verticalLabelPosition=top;align=center;verticalAlign=bottom;fontSize=16;fontStyle=1" vertex="1" parent="1">
          <mxGeometry x="-90" y="-50" width="240" height="440" as="geometry" />
        </mxCell>
        <mxCell id="nzP5aHGXRV3zcvqLns4Z-1" value="Microcontroller (MCU)" style="whiteSpace=wrap;html=1;aspect=fixed;labelPosition=center;verticalLabelPosition=top;align=center;verticalAlign=bottom;fontStyle=5;fontSize=20;" vertex="1" parent="1">
          <mxGeometry x="240" y="40" width="400" height="400" as="geometry" />
        </mxCell>
        <mxCell id="nzP5aHGXRV3zcvqLns4Z-2" value="SD Card" style="shape=parallelogram;perimeter=parallelogramPerimeter;whiteSpace=wrap;html=1;fixedSize=1;fontSize=14;" vertex="1" parent="1">
          <mxGeometry x="200" y="562.5" width="235" height="125" as="geometry" />
        </mxCell>
        <mxCell id="nzP5aHGXRV3zcvqLns4Z-3" value="Accelerometer" style="ellipse;whiteSpace=wrap;html=1;fontSize=14;" vertex="1" parent="1">
          <mxGeometry x="-50" y="-30" width="160" height="90" as="geometry" />
        </mxCell>
        <mxCell id="nzP5aHGXRV3zcvqLns4Z-5" value="Gyroscope" style="ellipse;whiteSpace=wrap;html=1;fontSize=14;" vertex="1" parent="1">
          <mxGeometry x="-50" y="125" width="160" height="90" as="geometry" />
        </mxCell>
        <mxCell id="nzP5aHGXRV3zcvqLns4Z-6" value="Gyroscope" style="ellipse;whiteSpace=wrap;html=1;fontSize=14;" vertex="1" parent="1">
          <mxGeometry x="-50" y="280" width="160" height="90" as="geometry" />
        </mxCell>
        <mxCell id="nzP5aHGXRV3zcvqLns4Z-7" value="Power Supply Unit (PSU)" style="shape=hexagon;perimeter=hexagonPerimeter2;whiteSpace=wrap;html=1;fixedSize=1;fontSize=16;fontStyle=1;labelPosition=center;verticalLabelPosition=top;align=center;verticalAlign=bottom;" vertex="1" parent="1">
          <mxGeometry x="510" y="520" width="320" height="220" as="geometry" />
        </mxCell>
        <mxCell id="nzP5aHGXRV3zcvqLns4Z-8" value="" style="shape=cylinder3;whiteSpace=wrap;html=1;boundedLbl=1;backgroundOutline=1;size=15;fontSize=14;" vertex="1" parent="1">
          <mxGeometry x="710" y="540" width="60" height="190" as="geometry" />
        </mxCell>
        <mxCell id="nzP5aHGXRV3zcvqLns4Z-9" value="Li-ion" style="shape=cylinder3;whiteSpace=wrap;html=1;boundedLbl=1;backgroundOutline=1;size=15;fontSize=14;" vertex="1" parent="1">
          <mxGeometry x="730" y="530" width="60" height="190" as="geometry" />
        </mxCell>
        <mxCell id="nzP5aHGXRV3zcvqLns4Z-10" value="Regulator" style="shape=trapezoid;perimeter=trapezoidPerimeter;whiteSpace=wrap;html=1;fixedSize=1;fontSize=14;" vertex="1" parent="1">
          <mxGeometry x="540" y="540" width="130" height="180" as="geometry" />
        </mxCell>
        <mxCell id="nzP5aHGXRV3zcvqLns4Z-11" value="Barometer" style="ellipse;whiteSpace=wrap;html=1;aspect=fixed;fontSize=14;" vertex="1" parent="1">
          <mxGeometry x="-55" y="420" width="170" height="170" as="geometry" />
        </mxCell>
        <mxCell id="nzP5aHGXRV3zcvqLns4Z-12" value="Temperature Sensor" style="ellipse;whiteSpace=wrap;html=1;aspect=fixed;fontSize=14;" vertex="1" parent="1">
          <mxGeometry x="-55" y="610" width="170" height="170" as="geometry" />
        </mxCell>
        <mxCell id="nzP5aHGXRV3zcvqLns4Z-13" value="GPS" style="shape=trapezoid;perimeter=trapezoidPerimeter;whiteSpace=wrap;html=1;fixedSize=1;fontSize=14;" vertex="1" parent="1">
          <mxGeometry x="740" y="275" width="210" height="110" as="geometry" />
        </mxCell>
        <mxCell id="nzP5aHGXRV3zcvqLns4Z-16" value="" style="edgeStyle=orthogonalEdgeStyle;rounded=0;orthogonalLoop=1;jettySize=auto;html=1;" edge="1" parent="1" source="nzP5aHGXRV3zcvqLns4Z-14" target="nzP5aHGXRV3zcvqLns4Z-15">
          <mxGeometry relative="1" as="geometry" />
        </mxCell>
        <mxCell id="nzP5aHGXRV3zcvqLns4Z-14" value="Radio Transceiver " style="shape=step;perimeter=stepPerimeter;whiteSpace=wrap;html=1;fixedSize=1;fontSize=14;" vertex="1" parent="1">
          <mxGeometry x="740" y="70" width="220" height="105" as="geometry" />
        </mxCell>
        <mxCell id="nzP5aHGXRV3zcvqLns4Z-15" value="Antenna " style="shape=tape;whiteSpace=wrap;html=1;fontSize=14;" vertex="1" parent="1">
          <mxGeometry x="1010" y="62.5" width="170" height="120" as="geometry" />
        </mxCell>
      </root>
    </mxGraphModel>
  </diagram>
</mxfile>
